<mxfile host="app.diagrams.net" modified="2024-02-25T09:32:46.505Z" agent="Mozilla/5.0 (Windows NT 10.0; Win64; x64; rv:123.0) Gecko/20100101 Firefox/123.0" version="23.1.6" etag="UeeJP641zqMvNIKNZxOv" type="github">
  <diagram name="Page-1" id="0siNM9wGDtKcnLM4HZvM">
    <mxGraphModel>
      <root>
        <mxCell id="0" />
        <mxCell id="1" parent="0" />
      </root>
    </mxGraphModel>
  </diagram>
</mxfile>
